REM DIRINDEX 1\2,1\3,1\4,1\5,1\6,1\7,1\8
REM DIRNAME folder01,folder02,folder03,folder04,folder05,folder06,folder07,folder08
TITLE ""
FILE "010 でる文10.mp3" MP3
  TRACK 01 AUDIO
    TITLE "0:"
    INDEX 01 00:00:00
  TRACK 02 AUDIO
    TITLE "8:cjc150_0414"
    INDEX 01 00:00:01
  TRACK 03 AUDIO
    TITLE "0:"
    INDEX 01 00:01:28
  TRACK 04 AUDIO
    TITLE "2:cjc150_0415"
    INDEX 01 00:02:20
  TRACK 05 AUDIO
    TITLE "0:"
    INDEX 01 00:06:71
  TRACK 06 AUDIO
    TITLE "8:cjc150_0416"
    INDEX 01 00:08:17
  TRACK 07 AUDIO
    TITLE "0:"
    INDEX 01 00:10:68
  TRACK 08 AUDIO
    TITLE "3:cjc150_0417"
    INDEX 01 00:11:54
  TRACK 09 AUDIO
    TITLE "3:cjc150_0418"
    INDEX 01 00:13:00
  TRACK 10 AUDIO
    TITLE "3:cjc150_0419"
    INDEX 01 00:14:27
  TRACK 11 AUDIO
    TITLE "3:cjc150_0420"
    INDEX 01 00:15:62
  TRACK 12 AUDIO
    TITLE "3:cjc150_0421"
    INDEX 01 00:17:16
  TRACK 13 AUDIO
    TITLE "3:cjc150_0422"
    INDEX 01 00:19:01
  TRACK 14 AUDIO
    TITLE "3:cjc150_0423"
    INDEX 01 00:20:69
  TRACK 15 AUDIO
    TITLE "3:cjc150_0424"
    INDEX 01 00:23:42
  TRACK 16 AUDIO
    TITLE "8:cjc150_0425"
    INDEX 01 00:26:03
  TRACK 17 AUDIO
    TITLE "0:"
    INDEX 01 00:28:55
  TRACK 18 AUDIO
    TITLE "4:cjc150_0426"
    INDEX 01 00:29:50
  TRACK 19 AUDIO
    TITLE "4:cjc150_0427"
    INDEX 01 00:30:67
  TRACK 20 AUDIO
    TITLE "4:cjc150_0428"
    INDEX 01 00:32:58
  TRACK 21 AUDIO
    TITLE "4:cjc150_0429"
    INDEX 01 00:35:08
  TRACK 22 AUDIO
    TITLE "4:cjc150_0430"
    INDEX 01 00:38:10
  TRACK 23 AUDIO
    TITLE "4:cjc150_0431"
    INDEX 01 00:40:56
  TRACK 24 AUDIO
    TITLE "8:cjc150_0432"
    INDEX 01 00:43:29
  TRACK 25 AUDIO
    TITLE "0:"
    INDEX 01 00:46:23
  TRACK 26 AUDIO
    TITLE "5:cjc150_0433"
    INDEX 01 00:46:68
  TRACK 27 AUDIO
    TITLE "5:cjc150_0434"
    INDEX 01 00:49:20
  TRACK 28 AUDIO
    TITLE "5:cjc150_0435"
    INDEX 01 00:51:50
  TRACK 29 AUDIO
    TITLE "5:cjc150_0436"
    INDEX 01 00:53:02
  TRACK 30 AUDIO
    TITLE "5:cjc150_0437"
    INDEX 01 00:54:34
  TRACK 31 AUDIO
    TITLE "5:cjc150_0438"
    INDEX 01 00:56:31
  TRACK 32 AUDIO
    TITLE "5:cjc150_0439"
    INDEX 01 00:58:50
  TRACK 33 AUDIO
    TITLE "5:cjc150_0440"
    INDEX 01 01:00:12
  TRACK 34 AUDIO
    TITLE "5:cjc150_0441"
    INDEX 01 01:01:48
  TRACK 35 AUDIO
    TITLE "5:cjc150_0442"
    INDEX 01 01:03:35
  TRACK 36 AUDIO
    TITLE "5:cjc150_0443"
    INDEX 01 01:06:22
  TRACK 37 AUDIO
    TITLE "5:cjc150_0444"
    INDEX 01 01:08:07
  TRACK 38 AUDIO
    TITLE "5:cjc150_0445"
    INDEX 01 01:09:71
  TRACK 39 AUDIO
    TITLE "5:cjc150_0446"
    INDEX 01 01:12:64
  TRACK 40 AUDIO
    TITLE "5:cjc150_0447"
    INDEX 01 01:16:44
  TRACK 41 AUDIO
    TITLE "5:cjc150_0448"
    INDEX 01 01:19:07
  TRACK 42 AUDIO
    TITLE "8:cjc150_0449"
    INDEX 01 01:21:57
  TRACK 43 AUDIO
    TITLE "0:"
    INDEX 01 01:24:37
  TRACK 44 AUDIO
    TITLE "6:cjc150_0450"
    INDEX 01 01:25:17
  TRACK 45 AUDIO
    TITLE "6:cjc150_0451"
    INDEX 01 01:27:44
  TRACK 46 AUDIO
    TITLE "6:cjc150_0452"
    INDEX 01 01:29:72
  TRACK 47 AUDIO
    TITLE "6:cjc150_0453"
    INDEX 01 01:31:16
  TRACK 48 AUDIO
    TITLE "6:cjc150_0454"
    INDEX 01 01:32:31
  TRACK 49 AUDIO
    TITLE "6:cjc150_0455"
    INDEX 01 01:35:08
  TRACK 50 AUDIO
    TITLE "6:cjc150_0456"
    INDEX 01 01:38:22
  TRACK 51 AUDIO
    TITLE "6:cjc150_0457"
    INDEX 01 01:40:42
  TRACK 52 AUDIO
    TITLE "6:cjc150_0458"
    INDEX 01 01:42:67
  TRACK 53 AUDIO
    TITLE "6:cjc150_0459"
    INDEX 01 01:45:55
  TRACK 54 AUDIO
    TITLE "6:cjc150_0460"
    INDEX 01 01:49:53
  TRACK 55 AUDIO
    TITLE "6:cjc150_0461"
    INDEX 01 01:52:28
  TRACK 56 AUDIO
    TITLE "8:cjc150_0462"
    INDEX 01 01:54:15
  TRACK 57 AUDIO
    TITLE "0:"
    INDEX 01 01:55:69
  TRACK 58 AUDIO
    TITLE "7:cjc150_0463"
    INDEX 01 01:56:61
  TRACK 59 AUDIO
    TITLE "7:cjc150_0464"
    INDEX 01 02:01:37
  TRACK 60 AUDIO
    TITLE "0:"
    INDEX 01 02:06:06
